<?xml version="1.0" encoding="utf-8"?>
<!-- Generator: Adobe Illustrator 24.0.0, SVG Export Plug-In . SVG Version: 6.00 Build 0)  -->
<!DOCTYPE svg PUBLIC "-//W3C//DTD SVG 1.1//EN" "http://www.w3.org/Graphics/SVG/1.1/DTD/svg11.dtd" [
	<!ENTITY ns_extend "http://ns.adobe.com/Extensibility/1.0/">
	<!ENTITY ns_ai "http://ns.adobe.com/AdobeIllustrator/10.0/">
	<!ENTITY ns_graphs "http://ns.adobe.com/Graphs/1.0/">
	<!ENTITY ns_vars "http://ns.adobe.com/Variables/1.0/">
	<!ENTITY ns_imrep "http://ns.adobe.com/ImageReplacement/1.0/">
	<!ENTITY ns_sfw "http://ns.adobe.com/SaveForWeb/1.0/">
	<!ENTITY ns_custom "http://ns.adobe.com/GenericCustomNamespace/1.0/">
	<!ENTITY ns_adobe_xpath "http://ns.adobe.com/XPath/1.0/">
]>
<svg version="1.1" id="Layer_2_1_" xmlns:x="&ns_extend;" xmlns:i="&ns_ai;" xmlns:graph="&ns_graphs;"
	 xmlns="http://www.w3.org/2000/svg" xmlns:xlink="http://www.w3.org/1999/xlink" x="0px" y="0px" viewBox="0 0 406.6 55.4"
	 style="enable-background:new 0 0 406.6 55.4;" xml:space="preserve">
<style type="text/css">
	.st0{fill:#1D1D1B;}
</style>
<metadata>
	<sfw  xmlns="&ns_sfw;">
		<slices></slices>
		<sliceSourceBounds  bottomLeftOrigin="true" height="45.1" width="400.5" x="-154.2" y="-19"></sliceSourceBounds>
	</sfw>
</metadata>
<title>logo</title>
<g>
	<path class="st0" d="M22.5,27.7L0,39.3l0-3.3l18.9-9.5v-0.1L0,16.8l0-3.3l22.5,11.6V27.7z"/>
	<path class="st0" d="M44.7,45.2v2.4H20.5v-2.4H44.7z"/>
	<path class="st0" d="M60,6.3c10.7,0,18.7,7.8,18.7,17.9c0,10.1-8,17.9-18.7,17.9s-18.7-7.8-18.7-17.9C41.3,14.1,49.3,6.3,60,6.3z
		 M59.9,38c8.2,0,14.3-6,14.3-13.8c0-7.9-6.2-13.9-14.3-13.9c-8.1,0-14.2,5.9-14.2,13.9C45.7,32.1,51.7,38,59.9,38z"/>
	<path class="st0" d="M85.9,41.5h-4.2v-27h4.2v6.3H86c1.5-4.7,5.5-6.9,10.8-6.9c0.8,0,1.9,0,3,0.3v4.1c-1.1-0.2-2.1-0.3-3.3-0.3
		c-5.6,0-10.6,3.3-10.6,10.2V41.5z"/>
	<path class="st0" d="M101.4,23.6c1-6.4,7.3-9.7,13.6-9.7c6.9,0,13.7,3.9,13.7,11.7v15.9h-4.2v-5.1h-0.1c-2.1,3.5-7.3,5.7-13,5.7
		c-6.8,0-10.9-3.1-10.9-8.2c0-4.8,3.6-7.6,10.9-7.6h13.2v-0.7c0-5.2-4.7-7.8-9.5-7.8c-4.1,0-8.2,1.9-9.2,5.8H101.4z M112.4,38.2
		c6.8,0,12-3.7,12-8.2v0h-13.1c-4.5,0-6.8,1.3-6.8,3.7C104.6,36.6,107.6,38.2,112.4,38.2z"/>
	<path class="st0" d="M146.3,13.9c7,0,12.2,4.2,13.6,10.3h-4.2c-1.2-3.9-4.8-6.4-9.4-6.4c-5.9,0-10.6,4.2-10.6,10.2
		c0,6,4.7,10.2,10.7,10.2c4.8,0,8.4-2.7,9.5-6.9h4.2c-1.3,6.4-6.5,10.8-13.7,10.8c-8.3,0-14.8-5.9-14.8-14.1
		C131.5,19.8,138,13.9,146.3,13.9z"/>
	<path class="st0" d="M163.1,5.2h4.2v36.3h-4.2V5.2z"/>
	<path class="st0" d="M184.5,13.9c8,0,14.1,5.9,14.1,14.1v1.9h-23.9c0.9,4.9,5,8.3,10.3,8.3c3.8,0,6.9-1.6,8.7-4.4h4.4
		c-2.1,5-7.1,8.2-13.3,8.2c-8.3,0-14.5-5.9-14.5-14.1C170.4,19.8,176.4,13.9,184.5,13.9z M194.3,26.3c-0.8-5-4.6-8.5-9.8-8.5
		c-5.2,0-9.1,3.5-9.9,8.5H194.3z"/>
	<path class="st0" d="M208.3,6.9h20.1c6.9,0,10.7,3.2,10.7,9.7c0,7.5-5.1,13.5-13.8,13.5h-16.7l-2,11.4h-4.4L208.3,6.9z M225.1,26
		c5.8,0,9.4-3.7,9.4-9c0-4.1-2.2-6.1-6.8-6.1h-15.9L209.2,26H225.1z"/>
	<path class="st0" d="M242.2,41.5H238l4.7-27h4.2l-1.1,6.3h0.1c2.3-4.7,6.3-6.9,11.5-6.9c0.8,0,2.4,0,3.4,0.3l-0.7,4.1
		c-1-0.2-2-0.3-3.2-0.3c-5.6,0-11.1,3.3-12.4,10.2L242.2,41.5z"/>
	<path class="st0" d="M275.8,13.9c7.8,0,13.6,5.1,13.6,12.8c0,8.6-7.3,15.4-16.3,15.4c-7.8,0-13.6-5.1-13.6-12.8
		C259.5,20.7,266.8,13.9,275.8,13.9z M273.3,38.2c6.6,0,11.9-4.9,11.9-11.3c0-5.5-3.9-9.2-9.5-9.2c-6.6,0-12,4.8-12,11.3
		C263.7,34.6,267.7,38.2,273.3,38.2z"/>
	<path class="st0" d="M294.9,14.5h4.2l-1,5.9h0.1c2.4-4.2,6.8-6.5,11.5-6.5c5.3,0,9,3,9.7,7.9h0.1c2.1-5.4,7.5-7.9,12.4-7.9
		c7,0,10.9,4.9,9.5,12.6l-2.7,15h-4.2l2.5-14c1.1-6.2-1.2-9.7-6.3-9.7c-5.8,0-10.8,4.4-11.9,10.2l-2.4,13.5h-4.2l2.5-14
		c1.1-6.2-1.2-9.7-6.3-9.7c-5.8,0-10.9,4.4-11.9,10.2l-2.4,13.5h-4.2L294.9,14.5z"/>
	<path class="st0" d="M351.6,14.5l-0.9,5.1h0.1c2.3-3.5,6.4-5.7,10.9-5.7c6.9,0,12,5.3,12,12.7c0,8.7-6.8,15.5-15.3,15.5
		c-4.8,0-8.7-2.1-10.5-5.7h-0.1l-2.5,13.9h-4.2l6.3-35.8H351.6z M349,29.8c0,5.2,3.3,8.5,8.7,8.5c6.6,0,11.8-4.9,11.8-11.4
		c0-5.4-3.5-9-8.8-9C354.2,17.8,349,23.2,349,29.8z"/>
	<path class="st0" d="M377.2,18.4l0.7-3.9h5.3l1.2-6.7h4.2l-1.2,6.7h13.1l-0.7,3.9h-13.1l-2.4,13.7c-0.8,4.5,1.1,6.2,5.5,6.2
		c2,0,4.3-0.3,6.7-1l-0.7,3.9c-2.5,0.6-4.8,0.9-7,0.9c-6.3,0-10-2.7-8.7-10l2.4-13.7H377.2z"/>
</g>
</svg>
