<?xml version="1.0" encoding="utf-8"?>
<!-- Generator: Adobe Illustrator 24.0.0, SVG Export Plug-In . SVG Version: 6.00 Build 0)  -->
<svg version="1.1" id="Layer_1" xmlns="http://www.w3.org/2000/svg" xmlns:xlink="http://www.w3.org/1999/xlink" x="0px" y="0px"
	 viewBox="0 0 418 287" style="enable-background:new 0 0 418 287;" xml:space="preserve">
<style type="text/css">
	.st0{fill:#F0E1E9;}
</style>
<g id="BTSQ3y_1_">
	<g>
		<path class="st0" d="M226.7,143.9c0,14.4,0,28.3,0,42.7c-6.4,0.6-12.6,1.2-19.1,1.8c-0.1-1.2-0.1-1.9-0.1-2.6
			c0-26.2-0.1-52.3,0-78.5c0.1-21.7,15.1-40,36-43.8c29.6-5.4,48.9,16.5,52.2,34.9c4.5,24.7-11,48-35.3,52.5
			c-11.4,2.1-22.2,0.3-32.2-6C227.9,144.6,227.5,144.4,226.7,143.9z M226.8,107.1c0,14.1,11,25.2,25,25.3c14.1,0.1,25.3-11,25.3-25
			c0.1-14.2-11-25.4-25.1-25.4C237.9,81.9,226.8,93,226.8,107.1z"/>
		<path class="st0" d="M201.4,107.3c0,24.7-19.7,44.3-44.4,44.3c-24.8,0-44.5-19.7-44.5-44.6c0-24.8,19.7-44.3,44.7-44.3
			C181.8,62.8,201.4,82.5,201.4,107.3z M157,81.9c-14.1,0-25.3,11-25.3,25.1c-0.1,14,11,25.3,25,25.4c14.1,0.1,25.4-11,25.4-25.2
			C182.2,93.2,171.1,82,157,81.9z"/>
		<path class="st0" d="M207.7,224.4c0-6.2,0-12.2,0-18.3c39.5-1.3,73.9-15.3,103.2-41.9c0.4,0.3,0.7,0.6,1.1,0.9
			c3.9,3.9,7.9,7.9,12.1,12C291,207.2,252.4,223,207.7,224.4z"/>
	</g>
</g>
</svg>
